<svg xmlns="http://www.w3.org/2000/svg" width="1600" height="800"><rect width="1600" height="800" x="0" y="0" fill="#FFFFFF" id="backgorund"/><g id="viz"><clipPath id="serieClipPath"><rect x="-50" y="-10" width="1600" height="800"/></clipPath><g transform="translate(0,0)"><g transform="translate(50,10)" clip-path="url(#serieClipPath)"><g id="axis"><g transform="translate(0,770)" fill="none" font-size="10" font-family="sans-serif" text-anchor="middle"><path class="domain" stroke="currentColor" d="M0,6V0H1535V6"/><g class="tick" opacity="1" transform="translate(0,0)"><line stroke="currentColor" y2="6"/><text fill="currentColor" y="9" dy="0.71em">July</text></g><g class="tick" opacity="1" transform="translate(171.80048661800487,0)"><line stroke="currentColor" y2="6"/><text fill="currentColor" y="9" dy="0.71em">October</text></g><g class="tick" opacity="1" transform="translate(343.5231650446066,0)"><line stroke="currentColor" y2="6"/><text fill="currentColor" y="9" dy="0.71em">2017</text></g><g class="tick" opacity="1" transform="translate(511.66666666666663,0)"><line stroke="currentColor" y2="6"/><text fill="currentColor" y="9" dy="0.71em">April</text></g><g class="tick" opacity="1" transform="translate(681.5997566909975,0)"><line stroke="currentColor" y2="6"/><text fill="currentColor" y="9" dy="0.71em">July</text></g><g class="tick" opacity="1" transform="translate(853.4002433090025,0)"><line stroke="currentColor" y2="6"/><text fill="currentColor" y="9" dy="0.71em">October</text></g><g class="tick" opacity="1" transform="translate(1025.1229217356042,0)"><line stroke="currentColor" y2="6"/><text fill="currentColor" y="9" dy="0.71em">2018</text></g><g class="tick" opacity="1" transform="translate(1193.2664233576643,0)"><line stroke="currentColor" y2="6"/><text fill="currentColor" y="9" dy="0.71em">April</text></g><g class="tick" opacity="1" transform="translate(1363.199513381995,0)"><line stroke="currentColor" y2="6"/><text fill="currentColor" y="9" dy="0.71em">July</text></g><g class="tick" opacity="1" transform="translate(1535,0)"><line stroke="currentColor" y2="6"/><text fill="currentColor" y="9" dy="0.71em">October</text></g><text x="1535" dy="-5" text-anchor="end" style="font-family: Arial, sans-serif; font-size: 12px; fill: rgb(123, 123, 123); font-weight: bold;">month_year</text></g><g transform="translate(0,0)" fill="none" font-size="10" font-family="sans-serif" text-anchor="end"><path class="domain" stroke="currentColor" d="M0,770V0"/><g class="tick" opacity="1" transform="translate(0,770)"><line stroke="currentColor" x2="-6"/><text fill="currentColor" x="-9" dy="0.32em">0</text></g><g class="tick" opacity="1" transform="translate(0,673.75)"><line stroke="currentColor" x2="-6"/><text fill="currentColor" x="-9" dy="0.32em">1,000</text></g><g class="tick" opacity="1" transform="translate(0,577.5)"><line stroke="currentColor" x2="-6"/><text fill="currentColor" x="-9" dy="0.32em">2,000</text></g><g class="tick" opacity="1" transform="translate(0,481.25)"><line stroke="currentColor" x2="-6"/><text fill="currentColor" x="-9" dy="0.32em">3,000</text></g><g class="tick" opacity="1" transform="translate(0,385)"><line stroke="currentColor" x2="-6"/><text fill="currentColor" x="-9" dy="0.32em">4,000</text></g><g class="tick" opacity="1" transform="translate(0,288.75)"><line stroke="currentColor" x2="-6"/><text fill="currentColor" x="-9" dy="0.32em">5,000</text></g><g class="tick" opacity="1" transform="translate(0,192.5)"><line stroke="currentColor" x2="-6"/><text fill="currentColor" x="-9" dy="0.32em">6,000</text></g><g class="tick" opacity="1" transform="translate(0,96.25)"><line stroke="currentColor" x2="-6"/><text fill="currentColor" x="-9" dy="0.32em">7,000</text></g><g class="tick" opacity="1" transform="translate(0,0)"><line stroke="currentColor" x2="-6"/><text fill="currentColor" x="-9" dy="0.32em">8,000</text></g><text x="4" text-anchor="start" dominant-baseline="hanging" style="font-family: Arial, sans-serif; font-size: 12px; fill: rgb(123, 123, 123); font-weight: bold;">value</text></g></g><g id="viz"><g id="seller_id"><path d="M115.7785888077859,769.71125C143.78953771289537,769.71125,143.78953771289537,756.23625,171.80048661800487,756.23625C228.71717862935927,756.23625,228.71717862935927,769.90375,285.63387064071367,769.90375C314.5785178426602,769.90375,314.5785178426602,748.15125,343.5231650446066,748.15125C372.4678122465531,748.15125,372.4678122465531,728.90125,401.4124594484996,728.90125C427.5949158556367,728.90125,427.5949158556367,721.97125,453.7773722627738,721.97125C482.72201946472023,721.97125,482.72201946472023,721.2975,511.66666666666663,721.2975C539.6776155717762,721.2975,539.6776155717762,713.88625,567.6885644768856,713.88625C596.6332116788321,713.88625,596.6332116788321,718.12125,625.5778588807785,718.12125C653.5888077858881,718.12125,653.5888077858881,711.6725,681.5997566909975,711.6725C710.544403892944,711.6725,710.544403892944,701.855,739.4890510948906,701.855C768.4336982968371,701.855,768.4336982968371,699.64125,797.3783454987835,699.64125C825.389294403893,699.64125,825.389294403893,695.3100000000001,853.4002433090025,695.3100000000001C882.3059864152474,695.3100000000001,882.3059864152474,677.11875,911.2117295214923,677.11875C939.2226784266018,677.11875,939.2226784266018,687.12875,967.2336273317113,687.12875C996.1782745336577,687.12875,996.1782745336577,676.6375,1025.1229217356042,676.6375C1054.0675689375507,676.6375,1054.0675689375507,678.85125,1083.0122161394972,678.85125C1109.1946725466341,678.85125,1109.1946725466341,674.135,1135.3771289537713,674.135C1164.3217761557178,674.135,1164.3217761557178,661.91125,1193.2664233576643,661.91125C1221.2773722627737,661.91125,1221.2773722627737,662.68125,1249.2883211678832,662.68125C1278.2329683698297,662.68125,1278.2329683698297,656.90625,1307.1776155717762,656.90625C1335.1885644768856,656.90625,1335.1885644768856,648.62875,1363.199513381995,648.62875C1392.1441605839416,648.62875,1392.1441605839416,646.9925,1421.088807785888,646.9925" stroke="rgb(203, 207, 216)" fill="none"/><g><circle class="dot" cx="115.7785888077859" cy="769.71125" r="1" fill="rgb(203, 207, 216)"/><circle class="dot" cx="171.80048661800487" cy="756.23625" r="1" fill="rgb(203, 207, 216)"/><circle class="dot" cx="285.63387064071367" cy="769.90375" r="1" fill="rgb(203, 207, 216)"/><circle class="dot" cx="343.5231650446066" cy="748.15125" r="1" fill="rgb(203, 207, 216)"/><circle class="dot" cx="401.4124594484996" cy="728.90125" r="1" fill="rgb(203, 207, 216)"/><circle class="dot" cx="453.7773722627738" cy="721.97125" r="1" fill="rgb(203, 207, 216)"/><circle class="dot" cx="511.66666666666663" cy="721.2975" r="1" fill="rgb(203, 207, 216)"/><circle class="dot" cx="567.6885644768856" cy="713.88625" r="1" fill="rgb(203, 207, 216)"/><circle class="dot" cx="625.5778588807785" cy="718.12125" r="1" fill="rgb(203, 207, 216)"/><circle class="dot" cx="681.5997566909975" cy="711.6725" r="1" fill="rgb(203, 207, 216)"/><circle class="dot" cx="739.4890510948906" cy="701.855" r="1" fill="rgb(203, 207, 216)"/><circle class="dot" cx="797.3783454987835" cy="699.64125" r="1" fill="rgb(203, 207, 216)"/><circle class="dot" cx="853.4002433090025" cy="695.3100000000001" r="1" fill="rgb(203, 207, 216)"/><circle class="dot" cx="911.2117295214923" cy="677.11875" r="1" fill="rgb(203, 207, 216)"/><circle class="dot" cx="967.2336273317113" cy="687.12875" r="1" fill="rgb(203, 207, 216)"/><circle class="dot" cx="1025.1229217356042" cy="676.6375" r="1" fill="rgb(203, 207, 216)"/><circle class="dot" cx="1083.0122161394972" cy="678.85125" r="1" fill="rgb(203, 207, 216)"/><circle class="dot" cx="1135.3771289537713" cy="674.135" r="1" fill="rgb(203, 207, 216)"/><circle class="dot" cx="1193.2664233576643" cy="661.91125" r="1" fill="rgb(203, 207, 216)"/><circle class="dot" cx="1249.2883211678832" cy="662.68125" r="1" fill="rgb(203, 207, 216)"/><circle class="dot" cx="1307.1776155717762" cy="656.90625" r="1" fill="rgb(203, 207, 216)"/><circle class="dot" cx="1363.199513381995" cy="648.62875" r="1" fill="rgb(203, 207, 216)"/><circle class="dot" cx="1421.088807785888" cy="646.9925" r="1" fill="rgb(203, 207, 216)"/></g><text font-family="sans-serif" font-size="10" class="labels" x="1421.088807785888" y="646.9925" dx="5" dy="4" text-anchor="start">seller_id</text></g><g id="order_id"><path d="M115.7785888077859,769.71125C143.78953771289537,769.71125,143.78953771289537,740.355,171.80048661800487,740.355C228.71717862935927,740.355,228.71717862935927,769.90375,285.63387064071367,769.90375C314.5785178426602,769.90375,314.5785178426602,694.05875,343.5231650446066,694.05875C372.4678122465531,694.05875,372.4678122465531,603.1987499999999,401.4124594484996,603.1987499999999C427.5949158556367,603.1987499999999,427.5949158556367,515.80375,453.7773722627738,515.80375C482.72201946472023,515.80375,482.72201946472023,539.86625,511.66666666666663,539.86625C539.6776155717762,539.86625,539.6776155717762,417.72499999999997,567.6885644768856,417.72499999999997C596.6332116788321,417.72499999999997,596.6332116788321,460.3637499999999,625.5778588807785,460.3637499999999C653.5888077858881,460.3637499999999,653.5888077858881,387.98375000000004,681.5997566909975,387.98375000000004C710.544403892944,387.98375000000004,710.544403892944,356.79875,739.4890510948906,356.79875C768.4336982968371,356.79875,768.4336982968371,361.61125,797.3783454987835,361.61125C825.389294403893,361.61125,825.389294403893,330.33000000000004,853.4002433090025,330.33000000000004C882.3059864152474,330.33000000000004,882.3059864152474,52.84125000000004,911.2117295214923,52.84125000000004C939.2226784266018,52.84125000000004,939.2226784266018,228.69000000000003,967.2336273317113,228.69000000000003C996.1782745336577,228.69000000000003,996.1782745336577,75.07500000000002,1025.1229217356042,75.07500000000002C1054.0675689375507,75.07500000000002,1054.0675689375507,125.7025,1083.0122161394972,125.7025C1109.1946725466341,125.7025,1109.1946725466341,78.15500000000003,1135.3771289537713,78.15500000000003C1164.3217761557178,78.15500000000003,1164.3217761557178,102.60249999999998,1193.2664233576643,102.60249999999998C1221.2773722627737,102.60249999999998,1221.2773722627737,110.39875000000002,1249.2883211678832,110.39875000000002C1278.2329683698297,110.39875000000002,1278.2329683698297,177.1,1307.1776155717762,177.1C1335.1885644768856,177.1,1335.1885644768856,166.22375000000002,1363.199513381995,166.22375000000002C1392.1441605839416,166.22375000000002,1392.1441605839416,148.995,1421.088807785888,148.995" stroke="rgb(203, 207, 216)" fill="none"/><g><circle class="dot" cx="115.7785888077859" cy="769.71125" r="1" fill="rgb(203, 207, 216)"/><circle class="dot" cx="171.80048661800487" cy="740.355" r="1" fill="rgb(203, 207, 216)"/><circle class="dot" cx="285.63387064071367" cy="769.90375" r="1" fill="rgb(203, 207, 216)"/><circle class="dot" cx="343.5231650446066" cy="694.05875" r="1" fill="rgb(203, 207, 216)"/><circle class="dot" cx="401.4124594484996" cy="603.1987499999999" r="1" fill="rgb(203, 207, 216)"/><circle class="dot" cx="453.7773722627738" cy="515.80375" r="1" fill="rgb(203, 207, 216)"/><circle class="dot" cx="511.66666666666663" cy="539.86625" r="1" fill="rgb(203, 207, 216)"/><circle class="dot" cx="567.6885644768856" cy="417.72499999999997" r="1" fill="rgb(203, 207, 216)"/><circle class="dot" cx="625.5778588807785" cy="460.3637499999999" r="1" fill="rgb(203, 207, 216)"/><circle class="dot" cx="681.5997566909975" cy="387.98375000000004" r="1" fill="rgb(203, 207, 216)"/><circle class="dot" cx="739.4890510948906" cy="356.79875" r="1" fill="rgb(203, 207, 216)"/><circle class="dot" cx="797.3783454987835" cy="361.61125" r="1" fill="rgb(203, 207, 216)"/><circle class="dot" cx="853.4002433090025" cy="330.33000000000004" r="1" fill="rgb(203, 207, 216)"/><circle class="dot" cx="911.2117295214923" cy="52.84125000000004" r="1" fill="rgb(203, 207, 216)"/><circle class="dot" cx="967.2336273317113" cy="228.69000000000003" r="1" fill="rgb(203, 207, 216)"/><circle class="dot" cx="1025.1229217356042" cy="75.07500000000002" r="1" fill="rgb(203, 207, 216)"/><circle class="dot" cx="1083.0122161394972" cy="125.7025" r="1" fill="rgb(203, 207, 216)"/><circle class="dot" cx="1135.3771289537713" cy="78.15500000000003" r="1" fill="rgb(203, 207, 216)"/><circle class="dot" cx="1193.2664233576643" cy="102.60249999999998" r="1" fill="rgb(203, 207, 216)"/><circle class="dot" cx="1249.2883211678832" cy="110.39875000000002" r="1" fill="rgb(203, 207, 216)"/><circle class="dot" cx="1307.1776155717762" cy="177.1" r="1" fill="rgb(203, 207, 216)"/><circle class="dot" cx="1363.199513381995" cy="166.22375000000002" r="1" fill="rgb(203, 207, 216)"/><circle class="dot" cx="1421.088807785888" cy="148.995" r="1" fill="rgb(203, 207, 216)"/></g><text font-family="sans-serif" font-size="10" class="labels" x="1421.088807785888" y="148.995" dx="5" dy="4" text-anchor="start">order_id</text></g><g id="product_id"><path d="M115.7785888077859,769.615C143.78953771289537,769.615,143.78953771289537,743.6275,171.80048661800487,743.6275C228.71717862935927,743.6275,228.71717862935927,769.90375,285.63387064071367,769.90375C314.5785178426602,769.90375,314.5785178426602,710.9025,343.5231650446066,710.9025C372.4678122465531,710.9025,372.4678122465531,648.34,401.4124594484996,648.34C427.5949158556367,648.34,427.5949158556367,599.0600000000001,453.7773722627738,599.0600000000001C482.72201946472023,599.0600000000001,482.72201946472023,609.93625,511.66666666666663,609.93625C539.6776155717762,609.93625,539.6776155717762,542.36875,567.6885644768856,542.36875C596.6332116788321,542.36875,596.6332116788321,573.5537499999999,625.5778588807785,573.5537499999999C653.5888077858881,573.5537499999999,653.5888077858881,526.58375,681.5997566909975,526.58375C710.544403892944,526.58375,710.544403892944,494.43625000000003,739.4890510948906,494.43625000000003C768.4336982968371,494.43625000000003,768.4336982968371,499.1525,797.3783454987835,499.1525C825.389294403893,499.1525,825.389294403893,482.11625000000004,853.4002433090025,482.11625000000004C882.3059864152474,482.11625000000004,882.3059864152474,336.29749999999996,911.2117295214923,336.29749999999996C939.2226784266018,336.29749999999996,939.2226784266018,440.72875000000005,967.2336273317113,440.72875000000005C996.1782745336577,440.72875000000005,996.1782745336577,376.53,1025.1229217356042,376.53C1054.0675689375507,376.53,1054.0675689375507,401.65125,1083.0122161394972,401.65125C1109.1946725466341,401.65125,1109.1946725466341,368.73375000000004,1135.3771289537713,368.73375000000004C1164.3217761557178,368.73375000000004,1164.3217761557178,354.10375000000005,1193.2664233576643,354.10375000000005C1221.2773722627737,354.10375000000005,1221.2773722627737,379.99500000000006,1249.2883211678832,379.99500000000006C1278.2329683698297,379.99500000000006,1278.2329683698297,382.59374999999994,1307.1776155717762,382.59374999999994C1335.1885644768856,382.59374999999994,1335.1885644768856,365.94249999999994,1363.199513381995,365.94249999999994C1392.1441605839416,365.94249999999994,1392.1441605839416,349.48375000000004,1421.088807785888,349.48375000000004" stroke="rgb(203, 207, 216)" fill="none"/><g><circle class="dot" cx="115.7785888077859" cy="769.615" r="1" fill="rgb(203, 207, 216)"/><circle class="dot" cx="171.80048661800487" cy="743.6275" r="1" fill="rgb(203, 207, 216)"/><circle class="dot" cx="285.63387064071367" cy="769.90375" r="1" fill="rgb(203, 207, 216)"/><circle class="dot" cx="343.5231650446066" cy="710.9025" r="1" fill="rgb(203, 207, 216)"/><circle class="dot" cx="401.4124594484996" cy="648.34" r="1" fill="rgb(203, 207, 216)"/><circle class="dot" cx="453.7773722627738" cy="599.0600000000001" r="1" fill="rgb(203, 207, 216)"/><circle class="dot" cx="511.66666666666663" cy="609.93625" r="1" fill="rgb(203, 207, 216)"/><circle class="dot" cx="567.6885644768856" cy="542.36875" r="1" fill="rgb(203, 207, 216)"/><circle class="dot" cx="625.5778588807785" cy="573.5537499999999" r="1" fill="rgb(203, 207, 216)"/><circle class="dot" cx="681.5997566909975" cy="526.58375" r="1" fill="rgb(203, 207, 216)"/><circle class="dot" cx="739.4890510948906" cy="494.43625000000003" r="1" fill="rgb(203, 207, 216)"/><circle class="dot" cx="797.3783454987835" cy="499.1525" r="1" fill="rgb(203, 207, 216)"/><circle class="dot" cx="853.4002433090025" cy="482.11625000000004" r="1" fill="rgb(203, 207, 216)"/><circle class="dot" cx="911.2117295214923" cy="336.29749999999996" r="1" fill="rgb(203, 207, 216)"/><circle class="dot" cx="967.2336273317113" cy="440.72875000000005" r="1" fill="rgb(203, 207, 216)"/><circle class="dot" cx="1025.1229217356042" cy="376.53" r="1" fill="rgb(203, 207, 216)"/><circle class="dot" cx="1083.0122161394972" cy="401.65125" r="1" fill="rgb(203, 207, 216)"/><circle class="dot" cx="1135.3771289537713" cy="368.73375000000004" r="1" fill="rgb(203, 207, 216)"/><circle class="dot" cx="1193.2664233576643" cy="354.10375000000005" r="1" fill="rgb(203, 207, 216)"/><circle class="dot" cx="1249.2883211678832" cy="379.99500000000006" r="1" fill="rgb(203, 207, 216)"/><circle class="dot" cx="1307.1776155717762" cy="382.59374999999994" r="1" fill="rgb(203, 207, 216)"/><circle class="dot" cx="1363.199513381995" cy="365.94249999999994" r="1" fill="rgb(203, 207, 216)"/><circle class="dot" cx="1421.088807785888" cy="349.48375000000004" r="1" fill="rgb(203, 207, 216)"/></g><text font-family="sans-serif" font-size="10" class="labels" x="1421.088807785888" y="349.48375000000004" dx="5" dy="4" text-anchor="start">product_id</text></g></g></g><text y="4" x="4" style="font-family: Arial, sans-serif; font-size: 12px; fill: black; font-weight: bold; dominant-baseline: hanging;"/></g></g></svg>